<svg xmlns="http://www.w3.org/2000/svg" width="48" height="45" fill-rule="evenodd"><circle fill-opacity="0" fill="#d8d8d8" cx="24" cy="22" r="26"/><g fill="#333" fill-rule="nonzero"><path d="M47.65623 20.35307L24.65628.24593c-.375-.328-.9375-.328-1.3125 0L.34374 20.35307c-.31444.27588-.4258.71867-.28125 1.11142s.51956.6529.9375.6529h5.00006V43.23c0 .5557.44728 1.0054 1.00003 1.0054h34c.55275 0 1.00003-.44968 1.00003-1.0054V22.11738h4.99996c.41794 0 .79106-.26014.9375-.6529s.0331-.83555-.28134-1.11142zM41 20.1067c-.55275 0-1.00003.44968-1.00003 1.0054V42.2246H8V21.11208c0-.5557-.44728-1.0054-1.00003-1.0054H3.67383l20.3262-17.7695 20.3262 17.7695H41z"/><circle cx="28.23529" cy="22.58824" r="1.88235"/><path d="M20.32936 23.24697c0 .77948.12744 1.54886.3822 2.29505l-6.29062 6.29065a1.0345 1.0345 0 0 0-.30331.73202v3.10587c0 .57226.46306 1.03532 1.03532 1.03532h3.10586c.27497 0 .538-.1092.732-.3033l6.29062-6.2896c.74618.25274 1.5145.38115 2.29504.38115 3.9956 0 7.24703-3.25146 7.24703-7.24707S31.57208 16 27.5765 16s-7.24713 3.25136-7.24713 7.24697zm7.24703-5.17652c2.85516 0 5.1764 2.32232 5.1764 5.17642s-2.32134 5.17652-5.1764 5.17652c-.72386 0-1.43772-.15675-2.1211-.46607-.3963-.17995-.8573-.09405-1.15868.2113l-6.4665 6.46652H16.1882V32.9932l6.4665-6.46652c.30534-.30428.38823-.7653.21236-1.15762-.30942-.68552-.46714-1.40026-.46714-2.12218 0-2.854 2.32134-5.17642 5.1765-5.17642z"/></g></svg>