<?xml version="1.0" encoding="UTF-8"?>
<svg version="1.1" viewBox="0 0 48 46" xmlns="http://www.w3.org/2000/svg">
<title>router</title>
<desc>Created with Sketch.</desc>
<g fill="none" fill-rule="evenodd">
<g transform="translate(-46 -326)">
<g transform="translate(44 323)">
<g fill="#D8D8D8" fill-opacity="0">
<circle cx="26" cy="26" r="26"/>
</g>
<g transform="translate(2 3)" fill="#333" fill-rule="nonzero">
<path id="Shape" d="m42.593 22.416h-27.191v-11.833c1.7197-0.61178 2.7073-2.4166 2.2951-4.1947-0.41175-1.7785-2.0921-2.9653-3.9058-2.7586-1.814 0.20671-3.1842 1.741-3.1854 3.5667 0.0020879 1.6224 1.0912 3.0426 2.658 3.4652v11.755h-6.4573c-2.9503 0.0033408-5.3419 2.3945-5.3452 5.3452v10.962c0 0.59006 0.47898 1.069 1.069 1.069h3.4656v4.4967c0 0.59006 0.47898 1.069 1.069 1.069h34.766c0.59006 0 1.069-0.47898 1.069-1.069v-4.4967h3.9692c0.59048 0 1.069-0.47898 1.069-1.069v-10.962c-0.0033408-2.9507-2.3941-5.3419-5.3448-5.3452zm-29.849-15.22c0-0.80095 0.64936-1.4503 1.4503-1.4503 0.80095 0 1.4499 0.64936 1.4499 1.4503s-0.64894 1.4503-1.4499 1.4503c-0.80053-0.0012527-1.4495-0.64978-1.4503-1.4503zm28.018 36.024h-32.628v-3.4276h32.628v3.4276zm5.0387-5.5657h-42.201v-9.8928c0.0016704-1.7706 1.4365-3.205 3.2071-3.2071h35.787c1.7702 0.002088 3.205 1.4365 3.2071 3.2071v9.8928z"/>
<path id="Shape" d="m10.623 28.019c-0.59048 0-1.069 0.47856-1.069 1.069v4.0302c0 0.59048 0.47856 1.069 1.069 1.069 0.59048 0 1.069-0.47856 1.069-1.069v-4.0302c0-0.59048-0.47856-1.069-1.069-1.069z"/>
<path id="Shape" d="m37.026 27.339c-1.9264 0-3.4878 1.5614-3.4878 3.4873 0 1.9264 1.5614 3.4878 3.4878 3.4878 1.8834 0 3.4151-1.5146 3.4865-3.4481 0-0.013363 8.351e-4 -0.026308 8.351e-4 -0.039672-0.0020879-1.9251-1.5622-3.4852-3.4873-3.4873zm0 4.837c-0.7429 0-1.3459-0.60008-1.3497-1.343-0.0033408-0.7429 0.59382-1.3488 1.3367-1.3559 0.74248-0.0070991 1.3513 0.58714 1.3622 1.33-0.038419 0.76921-0.62723 1.3693-1.3492 1.3693v-4.175e-4z"/>
<path id="Shape" d="m16.852 28.019c-0.59006 0-1.069 0.47856-1.069 1.069v4.0302c0 0.59048 0.47898 1.069 1.069 1.069 0.59048 0 1.069-0.47856 1.069-1.069v-4.0302c0-0.59048-0.47856-1.069-1.069-1.069z"/>
<path id="a" d="m7.5326 11.49c0.43263 0 0.82224-0.26058 0.98803-0.6598 0.16537-0.39964 0.073914-0.85941-0.23218-1.1655-1.4971-1.5046-1.4971-3.9362 0-5.4413 0.27687-0.26851 0.38795-0.66565 0.28981-1.0386-0.098135-0.37333-0.38962-0.66481-0.76253-0.76253-0.37333-0.098135-0.77046 0.012528-1.039 0.28939-2.3318 2.3398-2.3318 6.1253 0 8.4651 0.20045 0.20086 0.4723 0.31361 0.75585 0.3132z"/>
<path d="m3.4452 13.757c0.43263 0 0.82224-0.26058 0.98761-0.6598 0.16579-0.39964 0.074332-0.85941-0.23177-1.1651-2.7561-2.7565-2.7536-7.2795 0.0058463-10.083 0.27269-0.27144 0.37834-0.66815 0.27728-1.039-0.10148-0.37082-0.39379-0.65896-0.76629-0.75418-0.37249-0.095212-0.76754 0.016704-1.0344 0.29315-3.58 3.6372-3.5775 9.5111 0.0058464 13.095 0.20003 0.20086 0.4723 0.31361 0.75585 0.3132z"/>
</g>
</g>
</g>
</g>
</svg>
