<?xml version="1.0" encoding="UTF-8"?>
<svg version="1.1" viewBox="0 0 48 23" xmlns="http://www.w3.org/2000/svg">
<title>stats</title>
<desc>Created with Sketch.</desc>
<g fill="none" fill-rule="evenodd">
<g transform="translate(-146 -339)">
<g transform="translate(144 323)">
<circle cx="26" cy="26" r="26" fill="#D8D8D8" fill-opacity="0"/>
<g transform="translate(2 16)" fill="#333" fill-rule="nonzero">
<path id="Shape" d="m42.903 9.4791e-5c-2.8102 0-5.0965 2.3117-5.0965 5.1531 0 1.0363 0.30516 2.0014 0.8279 2.8103l-5.5062 5.5673c-0.80006-0.52855-1.7545-0.8371-2.7795-0.8371-1.0621 0-2.0492 0.33063-2.8665 0.89492l-5.5629-5.6255c0.52266-0.80885 0.82762-1.7738 0.82762-2.81 0-2.8414-2.2863-5.1531-5.0965-5.1531s-5.0965 2.3117-5.0965 5.1531c0 1.0362 0.30506 2.0008 0.82753 2.8097l-5.5064 5.5676c-0.79987-0.52836-1.7542-0.83672-2.7788-0.83672-2.8102 0-5.0965 2.3118-5.0965 5.1532 0 2.8414 2.2863 5.1531 5.0965 5.1531 2.8102 0 5.0965-2.3117 5.0965-5.1531 0-1.0363-0.30516-2.0014-0.8279-2.8104l5.5062-5.5673c0.80006 0.52855 1.7545 0.8371 2.7795 0.8371 1.0249 0 1.9793-0.30854 2.7793-0.8371l5.5937 5.6565c-0.48806 0.79036-0.77119 1.7227-0.77119 2.7211 0 2.8414 2.2863 5.1531 5.0965 5.1531s5.0965-2.3117 5.0965-5.1531c0-1.0362-0.30506-2.0009-0.82753-2.8097l5.5065-5.5676c0.79997 0.52836 1.7542 0.83672 2.7788 0.83672 2.8102 0 5.0965-2.3117 5.0965-5.1531 0-2.8415-2.2864-5.153-5.0966-5.153zm-37.807 20.87c-1.6487 0-2.99-1.3562-2.99-3.0231 0-1.667 1.3413-3.0232 2.99-3.0232 1.6486 0 2.99 1.3562 2.99 3.0232 0 1.6669-1.3413 3.0231-2.99 3.0231zm12.554-12.694c-1.6486 0-2.99-1.3562-2.99-3.0232 0-1.6669 1.3413-3.0232 2.99-3.0232s2.99 1.3562 2.99 3.0232-1.3413 3.0232-2.99 3.0232zm12.698 12.694c-1.6486 0-2.99-1.3562-2.99-3.0232 0-1.667 1.3413-3.0232 2.99-3.0232 1.6486 0 2.99 1.3562 2.99 3.0232-9.37e-5 1.667-1.3414 3.0232-2.99 3.0232zm12.554-12.694c-1.6486 0-2.99-1.3562-2.99-3.0232 0-1.6669 1.3413-3.0232 2.99-3.0232 1.6486 0 2.99 1.3562 2.99 3.0232s-1.3414 3.0232-2.99 3.0232z"/>
<path id="a" d="m16.709 12.29c-0.38725-0.38717-1.015-0.38717-1.4022 0l-2.0169 2.0169c-0.38716 0.38717-0.38716 1.015 8.83e-5 1.4023 0.19362 0.19363 0.44735 0.29044 0.70107 0.29044 0.25372 0 0.50754-0.096902 0.70107-0.29044l2.0169-2.0169c0.38734-0.38717 0.38734-1.0151 0-1.4023z"/>
<path d="m35.71 6.2904c-0.38725-0.38717-1.0149-0.38717-1.4023 8.825e-5l-2.0169 2.0169c-0.38716 0.38717-0.38716 1.015 0 1.4023 0.19371 0.19354 0.44744 0.29035 0.70117 0.29035 0.25381 0 0.50745-0.096902 0.70108-0.29044l2.0169-2.0169c0.38725-0.38726 0.38725-1.0151 8.83e-5 -1.4023z"/>
</g>
</g>
</g>
</g>
</svg>
